<mxfile host="app.diagrams.net" modified="2020-12-13T22:13:44.171Z" agent="5.0 (Windows)" etag="b264ukEkAme7tUXDiiOV" version="14.0.1" type="github">
  <diagram id="KVTfTJttFA7VIv5j3BBG" name="Page-1">
    <mxGraphModel dx="2393" dy="1975" grid="1" gridSize="10" guides="1" tooltips="1" connect="1" arrows="1" fold="1" page="1" pageScale="1" pageWidth="827" pageHeight="1169" math="0" shadow="0">
      <root>
        <mxCell id="0" />
        <mxCell id="1" parent="0" />
        <mxCell id="mD4xw7xEoLmeudiaQU-A-99" value="" style="edgeStyle=orthogonalEdgeStyle;rounded=0;orthogonalLoop=1;jettySize=auto;html=1;" parent="1" source="mD4xw7xEoLmeudiaQU-A-2" target="mD4xw7xEoLmeudiaQU-A-3" edge="1">
          <mxGeometry relative="1" as="geometry" />
        </mxCell>
        <mxCell id="mD4xw7xEoLmeudiaQU-A-112" style="edgeStyle=orthogonalEdgeStyle;rounded=0;orthogonalLoop=1;jettySize=auto;html=1;" parent="1" source="mD4xw7xEoLmeudiaQU-A-2" target="mD4xw7xEoLmeudiaQU-A-110" edge="1">
          <mxGeometry relative="1" as="geometry" />
        </mxCell>
        <mxCell id="mD4xw7xEoLmeudiaQU-A-2" value=".MDF" style="shape=image;html=1;verticalAlign=top;verticalLabelPosition=bottom;labelBackgroundColor=#ffffff;imageAspect=0;aspect=fixed;image=https://cdn1.iconfinder.com/data/icons/professional-toolbar-icons-png/48/Save_all.png" parent="1" vertex="1">
          <mxGeometry x="60" y="328" width="110" height="110" as="geometry" />
        </mxCell>
        <mxCell id="mD4xw7xEoLmeudiaQU-A-111" style="edgeStyle=orthogonalEdgeStyle;rounded=0;orthogonalLoop=1;jettySize=auto;html=1;entryX=0.705;entryY=0.479;entryDx=0;entryDy=0;entryPerimeter=0;" parent="1" source="mD4xw7xEoLmeudiaQU-A-3" target="mD4xw7xEoLmeudiaQU-A-110" edge="1">
          <mxGeometry relative="1" as="geometry" />
        </mxCell>
        <mxCell id="mD4xw7xEoLmeudiaQU-A-3" value="" style="shape=image;html=1;verticalAlign=top;verticalLabelPosition=bottom;labelBackgroundColor=#ffffff;imageAspect=0;aspect=fixed;image=https://cdn1.iconfinder.com/data/icons/professional-toolbar-icons-png/48/Save_all.png" parent="1" vertex="1">
          <mxGeometry x="111.59" y="238.5" width="87" height="87" as="geometry" />
        </mxCell>
        <mxCell id="mD4xw7xEoLmeudiaQU-A-73" value="" style="verticalLabelPosition=bottom;html=1;verticalAlign=top;align=center;strokeColor=none;fillColor=#00BEF2;shape=mxgraph.azure.azure_cache;" parent="1" vertex="1">
          <mxGeometry x="770" y="-76" width="100" height="100" as="geometry" />
        </mxCell>
        <mxCell id="mD4xw7xEoLmeudiaQU-A-87" style="edgeStyle=orthogonalEdgeStyle;rounded=0;orthogonalLoop=1;jettySize=auto;html=1;" parent="1" source="mD4xw7xEoLmeudiaQU-A-102" target="mD4xw7xEoLmeudiaQU-A-2" edge="1">
          <mxGeometry relative="1" as="geometry" />
        </mxCell>
        <mxCell id="mD4xw7xEoLmeudiaQU-A-90" style="edgeStyle=orthogonalEdgeStyle;rounded=0;orthogonalLoop=1;jettySize=auto;html=1;" parent="1" source="mD4xw7xEoLmeudiaQU-A-78" target="mD4xw7xEoLmeudiaQU-A-75" edge="1">
          <mxGeometry relative="1" as="geometry" />
        </mxCell>
        <mxCell id="mD4xw7xEoLmeudiaQU-A-74" value="" style="shape=image;html=1;verticalAlign=top;verticalLabelPosition=bottom;labelBackgroundColor=red;imageAspect=0;aspect=fixed;image=https://cdn2.iconfinder.com/data/icons/solid-apps-and-programming/32/Applications_and_Programming_database_data_base_config_cog_options-128.png" parent="1" vertex="1">
          <mxGeometry x="150.17" y="600" width="160" height="160" as="geometry" />
        </mxCell>
        <mxCell id="mD4xw7xEoLmeudiaQU-A-135" style="edgeStyle=orthogonalEdgeStyle;rounded=0;orthogonalLoop=1;jettySize=auto;html=1;entryX=1;entryY=0.75;entryDx=0;entryDy=0;" parent="1" source="mD4xw7xEoLmeudiaQU-A-75" target="mD4xw7xEoLmeudiaQU-A-133" edge="1">
          <mxGeometry relative="1" as="geometry" />
        </mxCell>
        <mxCell id="mD4xw7xEoLmeudiaQU-A-75" value="" style="shape=image;html=1;verticalAlign=top;verticalLabelPosition=bottom;labelBackgroundColor=#ffffff;imageAspect=0;aspect=fixed;image=https://cdn1.iconfinder.com/data/icons/professional-toolbar-icons-png/48/Save_all.png" parent="1" vertex="1">
          <mxGeometry x="280.17" y="340" width="106" height="106" as="geometry" />
        </mxCell>
        <mxCell id="mD4xw7xEoLmeudiaQU-A-95" value="" style="edgeStyle=orthogonalEdgeStyle;rounded=0;orthogonalLoop=1;jettySize=auto;html=1;" parent="1" source="mD4xw7xEoLmeudiaQU-A-91" target="mD4xw7xEoLmeudiaQU-A-73" edge="1">
          <mxGeometry relative="1" as="geometry" />
        </mxCell>
        <mxCell id="mD4xw7xEoLmeudiaQU-A-160" style="edgeStyle=orthogonalEdgeStyle;rounded=0;orthogonalLoop=1;jettySize=auto;html=1;entryX=0;entryY=0.25;entryDx=0;entryDy=0;" parent="1" source="mD4xw7xEoLmeudiaQU-A-91" target="mD4xw7xEoLmeudiaQU-A-159" edge="1">
          <mxGeometry relative="1" as="geometry" />
        </mxCell>
        <mxCell id="mD4xw7xEoLmeudiaQU-A-91" value="" style="shape=image;html=1;verticalAlign=top;verticalLabelPosition=bottom;labelBackgroundColor=#ffffff;imageAspect=0;aspect=fixed;image=https://cdn4.iconfinder.com/data/icons/meBaze-Freebies/128/add-notes.png" parent="1" vertex="1">
          <mxGeometry x="550" y="-90" width="128" height="128" as="geometry" />
        </mxCell>
        <mxCell id="mD4xw7xEoLmeudiaQU-A-94" style="edgeStyle=orthogonalEdgeStyle;rounded=0;orthogonalLoop=1;jettySize=auto;html=1;" parent="1" source="mD4xw7xEoLmeudiaQU-A-92" target="mD4xw7xEoLmeudiaQU-A-93" edge="1">
          <mxGeometry relative="1" as="geometry" />
        </mxCell>
        <mxCell id="mD4xw7xEoLmeudiaQU-A-138" style="edgeStyle=orthogonalEdgeStyle;rounded=0;orthogonalLoop=1;jettySize=auto;html=1;exitX=0.75;exitY=0;exitDx=0;exitDy=0;" parent="1" source="mD4xw7xEoLmeudiaQU-A-92" target="mD4xw7xEoLmeudiaQU-A-91" edge="1">
          <mxGeometry relative="1" as="geometry" />
        </mxCell>
        <mxCell id="mD4xw7xEoLmeudiaQU-A-92" value="BLOB STORAGE" style="whiteSpace=wrap;html=1;" parent="1" vertex="1">
          <mxGeometry x="630" y="82" width="100" height="31" as="geometry" />
        </mxCell>
        <mxCell id="mD4xw7xEoLmeudiaQU-A-139" style="edgeStyle=orthogonalEdgeStyle;rounded=0;orthogonalLoop=1;jettySize=auto;html=1;entryX=0.55;entryY=0.92;entryDx=0;entryDy=0;entryPerimeter=0;" parent="1" source="mD4xw7xEoLmeudiaQU-A-93" target="mD4xw7xEoLmeudiaQU-A-73" edge="1">
          <mxGeometry relative="1" as="geometry" />
        </mxCell>
        <mxCell id="mD4xw7xEoLmeudiaQU-A-93" value="Azure" style="whiteSpace=wrap;html=1;" parent="1" vertex="1">
          <mxGeometry x="780" y="87" width="120" height="21" as="geometry" />
        </mxCell>
        <mxCell id="mD4xw7xEoLmeudiaQU-A-97" value="" style="edgeStyle=orthogonalEdgeStyle;rounded=0;orthogonalLoop=1;jettySize=auto;html=1;" parent="1" source="mD4xw7xEoLmeudiaQU-A-96" target="mD4xw7xEoLmeudiaQU-A-74" edge="1">
          <mxGeometry relative="1" as="geometry" />
        </mxCell>
        <mxCell id="mD4xw7xEoLmeudiaQU-A-96" value="DATA BASES" style="whiteSpace=wrap;html=1;" parent="1" vertex="1">
          <mxGeometry x="180.17" y="800" width="100" height="31" as="geometry" />
        </mxCell>
        <mxCell id="mD4xw7xEoLmeudiaQU-A-100" value="Datos Secundarios" style="whiteSpace=wrap;html=1;rotation=90;" parent="1" vertex="1">
          <mxGeometry x="160.17" y="238.5" width="120" height="31" as="geometry" />
        </mxCell>
        <mxCell id="mD4xw7xEoLmeudiaQU-A-101" value="Datos Primarios" style="whiteSpace=wrap;html=1;rotation=90;" parent="1" vertex="1">
          <mxGeometry x="-40" y="367.5" width="100" height="31" as="geometry" />
        </mxCell>
        <mxCell id="mD4xw7xEoLmeudiaQU-A-106" style="edgeStyle=orthogonalEdgeStyle;rounded=0;orthogonalLoop=1;jettySize=auto;html=1;entryX=1;entryY=0.25;entryDx=0;entryDy=0;" parent="1" source="mD4xw7xEoLmeudiaQU-A-102" target="mD4xw7xEoLmeudiaQU-A-101" edge="1">
          <mxGeometry relative="1" as="geometry" />
        </mxCell>
        <mxCell id="mD4xw7xEoLmeudiaQU-A-104" style="edgeStyle=orthogonalEdgeStyle;rounded=0;orthogonalLoop=1;jettySize=auto;html=1;" parent="1" source="mD4xw7xEoLmeudiaQU-A-103" target="mD4xw7xEoLmeudiaQU-A-100" edge="1">
          <mxGeometry relative="1" as="geometry" />
        </mxCell>
        <mxCell id="mD4xw7xEoLmeudiaQU-A-103" value="NDF" style="whiteSpace=wrap;html=1;rotation=0;" parent="1" vertex="1">
          <mxGeometry x="130.17000000000002" y="319" width="60" height="21" as="geometry" />
        </mxCell>
        <mxCell id="mD4xw7xEoLmeudiaQU-A-102" value="MDF" style="whiteSpace=wrap;html=1;rotation=0;" parent="1" vertex="1">
          <mxGeometry x="120" y="460" width="70.17" height="21" as="geometry" />
        </mxCell>
        <mxCell id="mD4xw7xEoLmeudiaQU-A-108" style="edgeStyle=orthogonalEdgeStyle;rounded=0;orthogonalLoop=1;jettySize=auto;html=1;" parent="1" source="mD4xw7xEoLmeudiaQU-A-74" target="mD4xw7xEoLmeudiaQU-A-102" edge="1">
          <mxGeometry relative="1" as="geometry">
            <mxPoint x="230.19999999999982" y="600" as="sourcePoint" />
            <mxPoint x="115" y="438" as="targetPoint" />
          </mxGeometry>
        </mxCell>
        <mxCell id="mD4xw7xEoLmeudiaQU-A-78" value=".LDF" style="text;html=1;align=center;verticalAlign=middle;resizable=0;points=[];autosize=1;" parent="1" vertex="1">
          <mxGeometry x="310.17" y="450" width="40" height="20" as="geometry" />
        </mxCell>
        <mxCell id="mD4xw7xEoLmeudiaQU-A-109" style="edgeStyle=orthogonalEdgeStyle;rounded=0;orthogonalLoop=1;jettySize=auto;html=1;" parent="1" source="mD4xw7xEoLmeudiaQU-A-74" target="mD4xw7xEoLmeudiaQU-A-78" edge="1">
          <mxGeometry relative="1" as="geometry">
            <mxPoint x="230.19999999999982" y="600" as="sourcePoint" />
            <mxPoint x="353" y="436" as="targetPoint" />
          </mxGeometry>
        </mxCell>
        <mxCell id="mD4xw7xEoLmeudiaQU-A-136" style="edgeStyle=orthogonalEdgeStyle;rounded=0;orthogonalLoop=1;jettySize=auto;html=1;entryX=1;entryY=0.75;entryDx=0;entryDy=0;" parent="1" source="mD4xw7xEoLmeudiaQU-A-110" target="mD4xw7xEoLmeudiaQU-A-133" edge="1">
          <mxGeometry relative="1" as="geometry" />
        </mxCell>
        <mxCell id="mD4xw7xEoLmeudiaQU-A-110" value="" style="triangle;whiteSpace=wrap;html=1;rotation=90;" parent="1" vertex="1">
          <mxGeometry x="80" y="-39.870000000000005" width="150.17" height="388.75" as="geometry" />
        </mxCell>
        <mxCell id="mD4xw7xEoLmeudiaQU-A-121" value="" style="shape=mxgraph.cisco.misc.page_icon;html=1;pointerEvents=1;dashed=0;fillColor=#036897;strokeColor=#ffffff;strokeWidth=2;verticalLabelPosition=bottom;verticalAlign=top;align=center;outlineConnect=0;" parent="1" vertex="1">
          <mxGeometry x="280.17" y="81" width="30" height="49" as="geometry" />
        </mxCell>
        <mxCell id="mD4xw7xEoLmeudiaQU-A-122" value="" style="shape=mxgraph.cisco.misc.page_icon;html=1;pointerEvents=1;dashed=0;fillColor=#036897;strokeColor=#ffffff;strokeWidth=2;verticalLabelPosition=bottom;verticalAlign=top;align=center;outlineConnect=0;" parent="1" vertex="1">
          <mxGeometry x="240" y="81" width="30" height="49" as="geometry" />
        </mxCell>
        <mxCell id="mD4xw7xEoLmeudiaQU-A-123" value="" style="shape=mxgraph.cisco.misc.page_icon;html=1;pointerEvents=1;dashed=0;fillColor=#036897;strokeColor=#ffffff;strokeWidth=2;verticalLabelPosition=bottom;verticalAlign=top;align=center;outlineConnect=0;" parent="1" vertex="1">
          <mxGeometry x="198.59000000000003" y="81" width="30" height="49" as="geometry" />
        </mxCell>
        <mxCell id="mD4xw7xEoLmeudiaQU-A-124" value="" style="shape=mxgraph.cisco.misc.page_icon;html=1;pointerEvents=1;dashed=0;fillColor=#036897;strokeColor=#ffffff;strokeWidth=2;verticalLabelPosition=bottom;verticalAlign=top;align=center;outlineConnect=0;" parent="1" vertex="1">
          <mxGeometry x="160.17" y="82" width="30" height="49" as="geometry" />
        </mxCell>
        <mxCell id="mD4xw7xEoLmeudiaQU-A-125" value="" style="shape=mxgraph.cisco.misc.page_icon;html=1;pointerEvents=1;dashed=0;fillColor=#036897;strokeColor=#ffffff;strokeWidth=2;verticalLabelPosition=bottom;verticalAlign=top;align=center;outlineConnect=0;" parent="1" vertex="1">
          <mxGeometry x="119.99999999999999" y="81" width="30" height="49" as="geometry" />
        </mxCell>
        <mxCell id="mD4xw7xEoLmeudiaQU-A-126" value="" style="shape=mxgraph.cisco.misc.page_icon;html=1;pointerEvents=1;dashed=0;fillColor=#036897;strokeColor=#ffffff;strokeWidth=2;verticalLabelPosition=bottom;verticalAlign=top;align=center;outlineConnect=0;" parent="1" vertex="1">
          <mxGeometry x="81.59" y="82" width="30" height="49" as="geometry" />
        </mxCell>
        <mxCell id="mD4xw7xEoLmeudiaQU-A-127" value="" style="shape=mxgraph.cisco.misc.page_icon;html=1;pointerEvents=1;dashed=0;fillColor=#036897;strokeColor=#ffffff;strokeWidth=2;verticalLabelPosition=bottom;verticalAlign=top;align=center;outlineConnect=0;" parent="1" vertex="1">
          <mxGeometry x="40" y="82" width="30" height="49" as="geometry" />
        </mxCell>
        <mxCell id="mD4xw7xEoLmeudiaQU-A-128" value="" style="shape=mxgraph.cisco.misc.page_icon;html=1;pointerEvents=1;dashed=0;fillColor=#036897;strokeColor=#ffffff;strokeWidth=2;verticalLabelPosition=bottom;verticalAlign=top;align=center;outlineConnect=0;" parent="1" vertex="1">
          <mxGeometry y="82" width="30" height="49" as="geometry" />
        </mxCell>
        <mxCell id="mD4xw7xEoLmeudiaQU-A-132" value="PAGINAS 8 KB" style="text;html=1;strokeColor=none;fillColor=none;align=center;verticalAlign=middle;whiteSpace=wrap;rounded=0;" parent="1" vertex="1">
          <mxGeometry x="107.72" y="144" width="104.91" height="20" as="geometry" />
        </mxCell>
        <mxCell id="mD4xw7xEoLmeudiaQU-A-140" style="edgeStyle=orthogonalEdgeStyle;rounded=0;orthogonalLoop=1;jettySize=auto;html=1;" parent="1" source="mD4xw7xEoLmeudiaQU-A-133" target="mD4xw7xEoLmeudiaQU-A-91" edge="1">
          <mxGeometry relative="1" as="geometry" />
        </mxCell>
        <mxCell id="mD4xw7xEoLmeudiaQU-A-133" value="" style="shape=image;html=1;verticalAlign=top;verticalLabelPosition=bottom;labelBackgroundColor=#ffffff;imageAspect=0;aspect=fixed;image=https://cdn4.iconfinder.com/data/icons/thefreeforty/30/thefreeforty_antenna-128.png;rotation=111;" parent="1" vertex="1">
          <mxGeometry x="490" y="96" width="68" height="68" as="geometry" />
        </mxCell>
        <mxCell id="mD4xw7xEoLmeudiaQU-A-142" value="" style="outlineConnect=0;dashed=0;verticalLabelPosition=bottom;verticalAlign=top;align=center;html=1;shape=mxgraph.aws3.vpn_gateway;fillColor=#F58534;gradientColor=none;" parent="1" vertex="1">
          <mxGeometry x="701" y="-318" width="69" height="72" as="geometry" />
        </mxCell>
        <mxCell id="mD4xw7xEoLmeudiaQU-A-143" value="" style="shape=image;html=1;verticalAlign=top;verticalLabelPosition=bottom;labelBackgroundColor=#ffffff;imageAspect=0;aspect=fixed;image=https://cdn1.iconfinder.com/data/icons/virtual-reality-81/32/Virtual_Reality_360_rotate_vr_movement-128.png" parent="1" vertex="1">
          <mxGeometry x="550" y="-318" width="70" height="70" as="geometry" />
        </mxCell>
        <mxCell id="mD4xw7xEoLmeudiaQU-A-145" value="" style="image;html=1;image=img/lib/clip_art/computers/Virtual_Application_128x128.png" parent="1" vertex="1">
          <mxGeometry x="860" y="-318" width="80" height="80" as="geometry" />
        </mxCell>
        <mxCell id="mD4xw7xEoLmeudiaQU-A-146" value="" style="shadow=0;dashed=0;html=1;strokeColor=none;fillColor=#4495D1;labelPosition=center;verticalLabelPosition=bottom;verticalAlign=top;align=center;outlineConnect=0;shape=mxgraph.veeam.2d.veeam_backup_search_server;" parent="1" vertex="1">
          <mxGeometry x="374" y="-320" width="76" height="72" as="geometry" />
        </mxCell>
        <mxCell id="mD4xw7xEoLmeudiaQU-A-147" value="Text" style="text;html=1;strokeColor=none;fillColor=none;align=center;verticalAlign=middle;whiteSpace=wrap;rounded=0;" parent="1" vertex="1">
          <mxGeometry x="450" y="-70" width="40" height="20" as="geometry" />
        </mxCell>
        <mxCell id="mD4xw7xEoLmeudiaQU-A-156" style="edgeStyle=orthogonalEdgeStyle;rounded=0;orthogonalLoop=1;jettySize=auto;html=1;" parent="1" source="mD4xw7xEoLmeudiaQU-A-148" target="mD4xw7xEoLmeudiaQU-A-146" edge="1">
          <mxGeometry relative="1" as="geometry" />
        </mxCell>
        <mxCell id="mD4xw7xEoLmeudiaQU-A-148" value="&lt;div&gt;Disponibilidad&lt;/div&gt;&lt;div&gt;&lt;br&gt;&lt;/div&gt;" style="text;html=1;strokeColor=none;fillColor=none;align=center;verticalAlign=middle;whiteSpace=wrap;rounded=0;" parent="1" vertex="1">
          <mxGeometry x="392" y="-200" width="40" height="20" as="geometry" />
        </mxCell>
        <mxCell id="mD4xw7xEoLmeudiaQU-A-155" style="edgeStyle=orthogonalEdgeStyle;rounded=0;orthogonalLoop=1;jettySize=auto;html=1;entryX=0.5;entryY=1;entryDx=0;entryDy=0;" parent="1" source="mD4xw7xEoLmeudiaQU-A-149" target="mD4xw7xEoLmeudiaQU-A-143" edge="1">
          <mxGeometry relative="1" as="geometry" />
        </mxCell>
        <mxCell id="mD4xw7xEoLmeudiaQU-A-149" value="Movimiento" style="text;html=1;strokeColor=none;fillColor=none;align=center;verticalAlign=middle;whiteSpace=wrap;rounded=0;" parent="1" vertex="1">
          <mxGeometry x="565" y="-200" width="40" height="20" as="geometry" />
        </mxCell>
        <mxCell id="mD4xw7xEoLmeudiaQU-A-154" style="edgeStyle=orthogonalEdgeStyle;rounded=0;orthogonalLoop=1;jettySize=auto;html=1;exitX=0.5;exitY=0;exitDx=0;exitDy=0;entryX=0.5;entryY=1;entryDx=0;entryDy=0;entryPerimeter=0;" parent="1" source="mD4xw7xEoLmeudiaQU-A-150" target="mD4xw7xEoLmeudiaQU-A-142" edge="1">
          <mxGeometry relative="1" as="geometry" />
        </mxCell>
        <mxCell id="mD4xw7xEoLmeudiaQU-A-150" value="&lt;div&gt;Seguridad&lt;/div&gt;" style="text;html=1;strokeColor=none;fillColor=none;align=center;verticalAlign=middle;whiteSpace=wrap;rounded=0;" parent="1" vertex="1">
          <mxGeometry x="715.5" y="-200" width="40" height="20" as="geometry" />
        </mxCell>
        <mxCell id="mD4xw7xEoLmeudiaQU-A-153" style="edgeStyle=orthogonalEdgeStyle;rounded=0;orthogonalLoop=1;jettySize=auto;html=1;" parent="1" source="mD4xw7xEoLmeudiaQU-A-151" target="mD4xw7xEoLmeudiaQU-A-145" edge="1">
          <mxGeometry relative="1" as="geometry" />
        </mxCell>
        <mxCell id="mD4xw7xEoLmeudiaQU-A-151" value="Virtualización" style="text;html=1;strokeColor=none;fillColor=none;align=center;verticalAlign=middle;whiteSpace=wrap;rounded=0;" parent="1" vertex="1">
          <mxGeometry x="880" y="-200" width="40" height="20" as="geometry" />
        </mxCell>
        <mxCell id="mD4xw7xEoLmeudiaQU-A-161" style="edgeStyle=orthogonalEdgeStyle;rounded=0;orthogonalLoop=1;jettySize=auto;html=1;" parent="1" source="mD4xw7xEoLmeudiaQU-A-159" target="mD4xw7xEoLmeudiaQU-A-150" edge="1">
          <mxGeometry relative="1" as="geometry" />
        </mxCell>
        <mxCell id="mD4xw7xEoLmeudiaQU-A-162" style="edgeStyle=orthogonalEdgeStyle;rounded=0;orthogonalLoop=1;jettySize=auto;html=1;exitX=0.75;exitY=0;exitDx=0;exitDy=0;" parent="1" source="mD4xw7xEoLmeudiaQU-A-159" target="mD4xw7xEoLmeudiaQU-A-151" edge="1">
          <mxGeometry relative="1" as="geometry" />
        </mxCell>
        <mxCell id="mD4xw7xEoLmeudiaQU-A-163" style="edgeStyle=orthogonalEdgeStyle;rounded=0;orthogonalLoop=1;jettySize=auto;html=1;exitX=0.25;exitY=0;exitDx=0;exitDy=0;" parent="1" source="mD4xw7xEoLmeudiaQU-A-159" target="mD4xw7xEoLmeudiaQU-A-149" edge="1">
          <mxGeometry relative="1" as="geometry" />
        </mxCell>
        <mxCell id="mD4xw7xEoLmeudiaQU-A-164" style="edgeStyle=orthogonalEdgeStyle;rounded=0;orthogonalLoop=1;jettySize=auto;html=1;exitX=0;exitY=0;exitDx=0;exitDy=0;entryX=0.5;entryY=1;entryDx=0;entryDy=0;" parent="1" source="mD4xw7xEoLmeudiaQU-A-159" target="mD4xw7xEoLmeudiaQU-A-148" edge="1">
          <mxGeometry relative="1" as="geometry" />
        </mxCell>
        <mxCell id="mD4xw7xEoLmeudiaQU-A-159" value="Permite con los datos " style="rounded=1;whiteSpace=wrap;html=1;" parent="1" vertex="1">
          <mxGeometry x="650" y="-140" width="120" height="30" as="geometry" />
        </mxCell>
        <mxCell id="8XSxcHlYXkKotnHdqUFp-1" value="&lt;div&gt;Nombre:Alexis Ricardo López Mero&lt;/div&gt;&lt;div&gt;Curso/Nivel: 5to &quot;A&quot;&lt;/div&gt;&lt;div&gt;Docente: Ingeniero Roberth Moreira &lt;br&gt;&lt;/div&gt;&lt;div&gt;Asignatura: Gestión de base de datos&lt;/div&gt;&lt;div&gt;Colaborador: roberthmoreiracenteno@gmail.com&lt;br&gt;&lt;/div&gt;Fuente: Propia" style="rounded=1;whiteSpace=wrap;html=1;" vertex="1" parent="1">
          <mxGeometry x="910" y="690" width="350" height="100" as="geometry" />
        </mxCell>
      </root>
    </mxGraphModel>
  </diagram>
</mxfile>
